<svg xmlns="http://www.w3.org/2000/svg" viewBox="0 0 320 320" role="img" aria-labelledby="title desc">
  <title id="title">Jonathan James Guevara Rodriguez in a lab setting</title>
  <desc id="desc">Stylized side-angle illustration with instrumentation motifs.</desc>
  <defs>
    <linearGradient id="labBg" x1="0%" y1="0%" x2="100%" y2="100%">
      <stop offset="0%" stop-color="#050b1e" />
      <stop offset="45%" stop-color="#11274e" />
      <stop offset="100%" stop-color="#3f1b6b" />
    </linearGradient>
    <linearGradient id="jacket" x1="0%" y1="0%" x2="100%" y2="100%">
      <stop offset="0%" stop-color="#e0424f" />
      <stop offset="100%" stop-color="#82195c" />
    </linearGradient>
    <linearGradient id="skin" x1="35%" y1="20%" x2="65%" y2="90%">
      <stop offset="0%" stop-color="#fcd8c7" />
      <stop offset="60%" stop-color="#f29a6a" />
      <stop offset="100%" stop-color="#c36a43" />
    </linearGradient>
  </defs>
  <rect width="320" height="320" rx="28" fill="url(#labBg)" />
  <g opacity="0.35" fill="none" stroke="#7ed4f7" stroke-width="4" stroke-linecap="round">
    <path d="M40 72h80" />
    <path d="M54 108h66" />
    <path d="M40 144h90" />
    <circle cx="220" cy="82" r="22" />
    <path d="M220 106v40" />
    <path d="M196 200h88" />
    <path d="M212 232h72" />
  </g>
  <path d="M80 260c18-60 60-96 94-96 34 0 64 36 86 96" fill="url(#jacket)" />
  <path d="M158 120c-28 0-54 22-56 60 14-14 32-20 58-20 26 0 44 6 58 20-2-38-30-60-60-60z" fill="#1d2036" />
  <path d="M122 170c0 48 26 80 50 80s50-32 50-80v-18c0-30-22-54-50-54s-50 24-50 54v18z" fill="url(#skin)" />
  <path d="M162 218c10 8 22 8 32 0" fill="none" stroke="#b65c46" stroke-width="6" stroke-linecap="round" />
  <path d="M140 170c7 0 12 6 12 12s-5 12-12 12-12-6-12-12 5-12 12-12zm64 0c7 0 12 6 12 12s-5 12-12 12-12-6-12-12 5-12 12-12z" fill="#1b2035" />
  <circle cx="132" cy="164" r="4" fill="#fff" opacity="0.5" />
  <circle cx="212" cy="164" r="4" fill="#fff" opacity="0.5" />
  <path d="M182 112c-12-6-24-6-36 0 6-16 18-26 30-26s24 10 30 26c-12-6-24-6-36 0z" fill="#141529" />
</svg>
