<svg xmlns="http://www.w3.org/2000/svg" viewBox="0 0 64 64" role="img" aria-labelledby="title desc">
  <title id="title">Physics in the Wild monogram</title>
  <desc id="desc">JG monogram with orbital trail.</desc>
  <defs>
    <linearGradient id="orbital" x1="0%" y1="0%" x2="100%" y2="100%">
      <stop offset="0%" stop-color="#7ee7ff" />
      <stop offset="100%" stop-color="#a855f7" />
    </linearGradient>
  </defs>
  <rect width="64" height="64" rx="14" fill="#080d1d" />
  <circle cx="32" cy="32" r="20" stroke="url(#orbital)" stroke-width="4" fill="none" opacity="0.8" />
  <path d="M22 40V20h10c6 0 10 3.5 10 8.8 0 4.8-3.6 8-9.2 8H28v3.2c0 3.2 1.6 4.8 5 4.8 2.4 0 4.6-.6 6.6-1.8L40.4 46c-2.6 1.6-5.6 2.4-9 2.4-6 0-9.4-3.2-9.4-8.4Zm6-6.4h3.2c2.4 0 3.8-1.2 3.8-3 0-1.8-1.4-2.8-3.8-2.8H28Z" fill="#e2e8ff" />
</svg>
